# xmcd CD database file
#
# Track frame offsets:
#	150
#	19829
#	36158
#	55306
#	76127
#	96581
#	121359
#	137476
#
# Disc length: 2079 seconds
#
# Revision: 0
# Processed by: cddbd v1.5PL3 Copyright (c) Steve Scherf et al.
# Submitted via: CDex 1.51
#
DISCID=65081d08
DTITLE=Gabriela Anders - Eclectica
DYEAR=2003
DGENRE=Jazz
TTITLE0=Together Again
TTITLE1=Pearls And Gold
TTITLE2=Naufragio
TTITLE3=What My Dreams Are Made Of
TTITLE4=Fading Light
TTITLE5=I Wait
TTITLE6=Socamerengue
TTITLE7=Like You Do
EXTD=YEAR: 2003
EXTT0=
EXTT1=
EXTT2=
EXTT3=
EXTT4=
EXTT5=
EXTT6=
EXTT7=
PLAYORDER=
